<mxfile host="app.diagrams.net" agent="Mozilla/5.0 (Windows NT 10.0; Win64; x64; rv:135.0) Gecko/20100101 Firefox/135.0" version="26.0.11">
  <diagram name="Page-1" id="aUHoSJxE_x3GhL4KauC6">
    <mxGraphModel>
      <root>
        <mxCell id="0" />
        <mxCell id="1" parent="0" />
        <mxCell id="2" value="Marketplace" style="whiteSpace=wrap;strokeWidth=2;" vertex="1" parent="1">
          <mxGeometry x="8" y="197" width="148" height="54" as="geometry" />
        </mxCell>
        <mxCell id="3" value="Customer-Facing Bot" style="ellipse;aspect=fixed;strokeWidth=2;whiteSpace=wrap;" vertex="1" parent="1">
          <mxGeometry x="206" y="142" width="164" height="164" as="geometry" />
        </mxCell>
        <mxCell id="4" value="Product Discovery &amp; Recommendations" style="ellipse;aspect=fixed;strokeWidth=2;whiteSpace=wrap;" vertex="1" parent="1">
          <mxGeometry x="420" y="8" width="215" height="215" as="geometry" />
        </mxCell>
        <mxCell id="5" value="Order Tracking" style="ellipse;aspect=fixed;strokeWidth=2;whiteSpace=wrap;" vertex="1" parent="1">
          <mxGeometry x="467" y="273" width="120" height="120" as="geometry" />
        </mxCell>
        <mxCell id="6" value="" style="curved=1;startArrow=none;endArrow=block;exitX=1;exitY=0.51;entryX=0;entryY=0.5;" edge="1" parent="1" source="2" target="3">
          <mxGeometry relative="1" as="geometry">
            <Array as="points" />
          </mxGeometry>
        </mxCell>
        <mxCell id="7" value="" style="curved=1;startArrow=none;endArrow=block;exitX=0.99;exitY=0;entryX=0;entryY=0.5;" edge="1" parent="1" source="3" target="4">
          <mxGeometry relative="1" as="geometry">
            <Array as="points">
              <mxPoint x="395" y="116" />
            </Array>
          </mxGeometry>
        </mxCell>
        <mxCell id="8" value="" style="curved=1;startArrow=none;endArrow=block;exitX=0.99;exitY=1;entryX=0;entryY=0.5;" edge="1" parent="1" source="3" target="5">
          <mxGeometry relative="1" as="geometry">
            <Array as="points">
              <mxPoint x="395" y="333" />
            </Array>
          </mxGeometry>
        </mxCell>
      </root>
    </mxGraphModel>
  </diagram>
</mxfile>
